<svg version="1.1" id="Layer_1" xmlns="http://www.w3.org/2000/svg" xmlns:xlink="http://www.w3.org/1999/xlink" x="0px" y="0px"
     width="100%" viewBox="0 0 170 192" enable-background="new 0 0 170 192" xml:space="preserve">

  <!-- Parte Escura (Azul Marinho) -->
  <path fill="#191D37" opacity="1.000000" stroke="none" 
        d="M80.183662,75.810768 C77.732452,68.097397 74.570587,60.523445 73.022591,52.632874 C71.352119,44.118004 74.661865,41.031540 83.283569,41.027416 C88.935478,41.024715 94.587547,41.064495 100.239235,41.031700 C105.200172,41.002918 108.136879,42.948978 109.309479,48.195587 C112.915817,64.331703 122.705200,74.519272 139.211227,77.692986 C143.720901,78.560081 145.757996,81.361404 145.818893,85.707214 C145.909744,92.188934 145.874756,98.673256 145.823654,105.155914 C145.773209,111.556618 143.124954,114.294975 136.706192,114.190300 C133.409576,114.136543 130.122864,113.475060 126.179565,112.803680 C105.416771,106.454422 90.280624,94.244904 80.183662,75.810768 z"/>

  <!-- Parte Clara (Azul Claro) -->
  <path fill="#76A1C5" opacity="1.000000" stroke="none" 
        d="M52.989838,78.103912 C53.414665,78.111641 53.839493,78.119370 54.683357,78.504890 C59.911880,80.926186 64.866585,82.686821 69.503120,85.067192 C82.466385,91.722450 92.164001,101.931915 100.042389,114.009171 C102.468391,120.882317 105.046173,127.707542 107.239212,134.654221 C108.021835,137.133255 108.090446,139.905472 108.102425,142.545609 C108.125877,147.715057 105.372223,150.675476 100.211189,150.815643 C93.383408,151.001099 86.543739,150.981567 79.715042,150.813065 C75.658867,150.712967 72.786385,148.753754 71.899834,144.487549 C68.372520,127.513824 58.213974,117.243980 41.096958,113.915260 C36.803337,113.080292 35.178898,109.917137 35.131603,105.858597 C35.057819,99.526520 35.086670,93.192848 35.117641,86.860069 C35.150581,80.124359 37.431732,77.819931 44.095573,77.768143 C46.093697,77.752609 48.092777,77.860023 50.681923,78.173859 C51.844898,78.325722 52.417370,78.214821 52.989838,78.103912 z"/>

  <!-- Detalhes do Centro (Cinza) -->
  <path fill="#BDBFC1" opacity="1.000000" stroke="none" 
        d="M100.507469,114.014954 C92.164001,101.931915 82.466385,91.722450 69.503120,85.067192 C64.866585,82.686821 59.911880,80.926186 54.999504,78.546791 C59.421803,77.860619 63.944855,77.479164 68.472839,77.169792 C72.201645,76.915031 75.936295,76.745743 79.926010,76.174667 C90.280624,94.244904 105.416771,106.454422 125.759171,112.794418 C121.458549,113.391563 116.930489,113.819092 112.392563,114.002762 C108.591873,114.156609 104.779655,114.025612 100.507469,114.014954 z"/>
  
  <path fill="#BDBFC1" opacity="1.000000" stroke="none" 
        d="M52.855377,77.884109 C52.417370,78.214821 51.844898,78.325722 51.141312,78.209213 C51.580437,77.875977 52.150677,77.770134 52.855377,77.884109 z"/>
</svg>
